<mxfile host="app.diagrams.net" modified="2021-07-02T20:19:52.748Z" agent="5.0 (X11; Linux x86_64) AppleWebKit/537.36 (KHTML, like Gecko) Chrome/91.0.4472.114 Safari/537.36" etag="rGjzIwnF_iQRToZ9bc-M" version="14.8.3" type="github">
  <diagram id="mHQb_iu14OJVqmuolFHd" name="Page-1">
    <mxGraphModel dx="970" dy="657" grid="1" gridSize="10" guides="1" tooltips="1" connect="1" arrows="1" fold="1" page="1" pageScale="1" pageWidth="827" pageHeight="1169" math="0" shadow="0">
      <root>
        <mxCell id="0" />
        <mxCell id="1" parent="0" />
        <mxCell id="ZZ6nd3A8es1jyBLQXkn4-52" style="edgeStyle=orthogonalEdgeStyle;rounded=0;orthogonalLoop=1;jettySize=auto;html=1;exitX=0;exitY=1;exitDx=0;exitDy=0;" edge="1" parent="1" source="ZZ6nd3A8es1jyBLQXkn4-37" target="ZZ6nd3A8es1jyBLQXkn4-43">
          <mxGeometry relative="1" as="geometry" />
        </mxCell>
        <mxCell id="ZZ6nd3A8es1jyBLQXkn4-37" value="12" style="ellipse;whiteSpace=wrap;html=1;aspect=fixed;" vertex="1" parent="1">
          <mxGeometry x="320" y="120" width="40" height="40" as="geometry" />
        </mxCell>
        <mxCell id="ZZ6nd3A8es1jyBLQXkn4-49" style="edgeStyle=orthogonalEdgeStyle;rounded=0;orthogonalLoop=1;jettySize=auto;html=1;exitX=0;exitY=0.5;exitDx=0;exitDy=0;entryX=0.5;entryY=0;entryDx=0;entryDy=0;" edge="1" parent="1" source="ZZ6nd3A8es1jyBLQXkn4-38" target="ZZ6nd3A8es1jyBLQXkn4-37">
          <mxGeometry relative="1" as="geometry" />
        </mxCell>
        <mxCell id="ZZ6nd3A8es1jyBLQXkn4-50" style="edgeStyle=orthogonalEdgeStyle;rounded=0;orthogonalLoop=1;jettySize=auto;html=1;exitX=0.5;exitY=1;exitDx=0;exitDy=0;" edge="1" parent="1" source="ZZ6nd3A8es1jyBLQXkn4-38" target="ZZ6nd3A8es1jyBLQXkn4-39">
          <mxGeometry relative="1" as="geometry" />
        </mxCell>
        <mxCell id="ZZ6nd3A8es1jyBLQXkn4-51" style="edgeStyle=orthogonalEdgeStyle;rounded=0;orthogonalLoop=1;jettySize=auto;html=1;exitX=1;exitY=0.5;exitDx=0;exitDy=0;entryX=0.5;entryY=0;entryDx=0;entryDy=0;" edge="1" parent="1" source="ZZ6nd3A8es1jyBLQXkn4-38" target="ZZ6nd3A8es1jyBLQXkn4-40">
          <mxGeometry relative="1" as="geometry" />
        </mxCell>
        <mxCell id="ZZ6nd3A8es1jyBLQXkn4-38" value="12" style="ellipse;whiteSpace=wrap;html=1;aspect=fixed;" vertex="1" parent="1">
          <mxGeometry x="394" y="40" width="40" height="40" as="geometry" />
        </mxCell>
        <mxCell id="ZZ6nd3A8es1jyBLQXkn4-53" style="edgeStyle=orthogonalEdgeStyle;rounded=0;orthogonalLoop=1;jettySize=auto;html=1;exitX=0.5;exitY=1;exitDx=0;exitDy=0;" edge="1" parent="1" source="ZZ6nd3A8es1jyBLQXkn4-39" target="ZZ6nd3A8es1jyBLQXkn4-42">
          <mxGeometry relative="1" as="geometry" />
        </mxCell>
        <mxCell id="ZZ6nd3A8es1jyBLQXkn4-39" value="12" style="ellipse;whiteSpace=wrap;html=1;aspect=fixed;" vertex="1" parent="1">
          <mxGeometry x="394" y="120" width="40" height="40" as="geometry" />
        </mxCell>
        <mxCell id="ZZ6nd3A8es1jyBLQXkn4-54" style="edgeStyle=orthogonalEdgeStyle;rounded=0;orthogonalLoop=1;jettySize=auto;html=1;exitX=0;exitY=1;exitDx=0;exitDy=0;entryX=1;entryY=0;entryDx=0;entryDy=0;" edge="1" parent="1" source="ZZ6nd3A8es1jyBLQXkn4-40" target="ZZ6nd3A8es1jyBLQXkn4-44">
          <mxGeometry relative="1" as="geometry" />
        </mxCell>
        <mxCell id="ZZ6nd3A8es1jyBLQXkn4-55" style="edgeStyle=orthogonalEdgeStyle;rounded=0;orthogonalLoop=1;jettySize=auto;html=1;exitX=0.5;exitY=1;exitDx=0;exitDy=0;" edge="1" parent="1" source="ZZ6nd3A8es1jyBLQXkn4-40" target="ZZ6nd3A8es1jyBLQXkn4-45">
          <mxGeometry relative="1" as="geometry" />
        </mxCell>
        <mxCell id="ZZ6nd3A8es1jyBLQXkn4-40" value="10" style="ellipse;whiteSpace=wrap;html=1;aspect=fixed;" vertex="1" parent="1">
          <mxGeometry x="480" y="120" width="40" height="40" as="geometry" />
        </mxCell>
        <mxCell id="ZZ6nd3A8es1jyBLQXkn4-58" style="edgeStyle=orthogonalEdgeStyle;rounded=0;orthogonalLoop=1;jettySize=auto;html=1;exitX=0.5;exitY=1;exitDx=0;exitDy=0;entryX=0.5;entryY=0;entryDx=0;entryDy=0;" edge="1" parent="1" source="ZZ6nd3A8es1jyBLQXkn4-42" target="ZZ6nd3A8es1jyBLQXkn4-48">
          <mxGeometry relative="1" as="geometry" />
        </mxCell>
        <mxCell id="ZZ6nd3A8es1jyBLQXkn4-59" style="edgeStyle=orthogonalEdgeStyle;rounded=0;orthogonalLoop=1;jettySize=auto;html=1;exitX=0.5;exitY=1;exitDx=0;exitDy=0;" edge="1" parent="1" source="ZZ6nd3A8es1jyBLQXkn4-42" target="ZZ6nd3A8es1jyBLQXkn4-46">
          <mxGeometry relative="1" as="geometry" />
        </mxCell>
        <mxCell id="ZZ6nd3A8es1jyBLQXkn4-42" value="12" style="ellipse;whiteSpace=wrap;html=1;aspect=fixed;" vertex="1" parent="1">
          <mxGeometry x="360" y="200" width="40" height="40" as="geometry" />
        </mxCell>
        <mxCell id="ZZ6nd3A8es1jyBLQXkn4-43" value="12" style="ellipse;whiteSpace=wrap;html=1;aspect=fixed;" vertex="1" parent="1">
          <mxGeometry x="280" y="200" width="40" height="40" as="geometry" />
        </mxCell>
        <mxCell id="ZZ6nd3A8es1jyBLQXkn4-44" value="12" style="ellipse;whiteSpace=wrap;html=1;aspect=fixed;" vertex="1" parent="1">
          <mxGeometry x="440" y="200" width="40" height="40" as="geometry" />
        </mxCell>
        <mxCell id="ZZ6nd3A8es1jyBLQXkn4-57" style="edgeStyle=orthogonalEdgeStyle;rounded=0;orthogonalLoop=1;jettySize=auto;html=1;exitX=0.5;exitY=1;exitDx=0;exitDy=0;" edge="1" parent="1" source="ZZ6nd3A8es1jyBLQXkn4-45" target="ZZ6nd3A8es1jyBLQXkn4-47">
          <mxGeometry relative="1" as="geometry" />
        </mxCell>
        <mxCell id="ZZ6nd3A8es1jyBLQXkn4-45" value="34" style="ellipse;whiteSpace=wrap;html=1;aspect=fixed;" vertex="1" parent="1">
          <mxGeometry x="520" y="200" width="40" height="40" as="geometry" />
        </mxCell>
        <mxCell id="ZZ6nd3A8es1jyBLQXkn4-46" value="45" style="ellipse;whiteSpace=wrap;html=1;aspect=fixed;" vertex="1" parent="1">
          <mxGeometry x="400" y="280" width="40" height="40" as="geometry" />
        </mxCell>
        <mxCell id="ZZ6nd3A8es1jyBLQXkn4-47" value="34" style="ellipse;whiteSpace=wrap;html=1;aspect=fixed;" vertex="1" parent="1">
          <mxGeometry x="520" y="280" width="40" height="40" as="geometry" />
        </mxCell>
        <mxCell id="ZZ6nd3A8es1jyBLQXkn4-48" value="34" style="ellipse;whiteSpace=wrap;html=1;aspect=fixed;" vertex="1" parent="1">
          <mxGeometry x="320" y="280" width="40" height="40" as="geometry" />
        </mxCell>
      </root>
    </mxGraphModel>
  </diagram>
</mxfile>
